<svg width="270" height="351" viewBox="0 0 270 351" fill="none" xmlns="http://www.w3.org/2000/svg">
<path d="M186.797 255.297C186.797 249.984 186.016 245.219 184.453 241C182.891 236.625 180 232.562 175.781 228.812C171.562 225.062 165.469 221.312 157.5 217.562C149.688 213.656 139.375 209.594 126.562 205.375C111.562 200.375 97.1094 194.75 83.2031 188.5C69.2969 182.094 56.875 174.672 45.9375 166.234C35 157.641 26.3281 147.641 19.9219 136.234C13.5156 124.672 10.3125 111.234 10.3125 95.9219C10.3125 81.2344 13.5938 68.0312 20.1562 56.3125C26.7188 44.4375 35.8594 34.3594 47.5781 26.0781C59.4531 17.6406 73.3594 11.2344 89.2969 6.85938C105.234 2.32813 122.656 0.0625 141.562 0.0625C166.562 0.0625 188.594 4.4375 207.656 13.1875C226.875 21.7813 241.875 34.0469 252.656 49.9844C263.594 65.7656 269.062 84.4375 269.062 106H187.266C187.266 97.4062 185.469 89.8281 181.875 83.2656C178.438 76.7031 173.203 71.5469 166.172 67.7969C159.141 64.0469 150.312 62.1719 139.688 62.1719C129.375 62.1719 120.703 63.7344 113.672 66.8594C106.641 69.9844 101.328 74.2031 97.7344 79.5156C94.1406 84.6719 92.3438 90.375 92.3438 96.625C92.3438 101.781 93.75 106.469 96.5625 110.688C99.5312 114.75 103.672 118.578 108.984 122.172C114.453 125.766 121.016 129.203 128.672 132.484C136.484 135.766 145.234 138.969 154.922 142.094C173.047 147.875 189.141 154.359 203.203 161.547C217.422 168.578 229.375 176.625 239.062 185.688C248.906 194.594 256.328 204.75 261.328 216.156C266.484 227.562 269.062 240.453 269.062 254.828C269.062 270.141 266.094 283.734 260.156 295.609C254.219 307.484 245.703 317.562 234.609 325.844C223.516 333.969 210.234 340.141 194.766 344.359C179.297 348.578 162.031 350.688 142.969 350.688C125.469 350.688 108.203 348.5 91.1719 344.125C74.2969 339.594 58.9844 332.719 45.2344 323.5C31.4844 314.125 20.4688 302.172 12.1875 287.641C4.0625 272.953 0 255.531 0 235.375H82.5C82.5 245.375 83.8281 253.812 86.4844 260.688C89.1406 267.562 93.0469 273.109 98.2031 277.328C103.359 281.391 109.688 284.359 117.188 286.234C124.688 287.953 133.281 288.812 142.969 288.812C153.438 288.812 161.875 287.328 168.281 284.359C174.688 281.234 179.375 277.172 182.344 272.172C185.312 267.016 186.797 261.391 186.797 255.297Z" fill="#F915B5"/>
</svg>
