<svg width="512" height="512" viewBox="0 0 512 512" fill="none" xmlns="http://www.w3.org/2000/svg">
<rect width="512" height="512" fill="#F915B5"/>
<path d="M391.797 383.297C391.797 377.984 391.016 373.219 389.453 369C387.891 364.625 385 360.562 380.781 356.812C376.562 353.062 370.469 349.312 362.5 345.562C354.688 341.656 344.375 337.594 331.562 333.375C316.562 328.375 302.109 322.75 288.203 316.5C274.297 310.094 261.875 302.672 250.938 294.234C240 285.641 231.328 275.641 224.922 264.234C218.516 252.672 215.312 239.234 215.312 223.922C215.312 209.234 218.594 196.031 225.156 184.312C231.719 172.437 240.859 162.359 252.578 154.078C264.453 145.641 278.359 139.234 294.297 134.859C310.234 130.328 327.656 128.062 346.562 128.062C371.562 128.062 393.594 132.438 412.656 141.188C431.875 149.781 446.875 162.047 457.656 177.984C468.594 193.766 474.062 212.438 474.062 234H392.266C392.266 225.406 390.469 217.828 386.875 211.266C383.438 204.703 378.203 199.547 371.172 195.797C364.141 192.047 355.312 190.172 344.688 190.172C334.375 190.172 325.703 191.734 318.672 194.859C311.641 197.984 306.328 202.203 302.734 207.516C299.141 212.672 297.344 218.375 297.344 224.625C297.344 229.781 298.75 234.469 301.562 238.688C304.531 242.75 308.672 246.578 313.984 250.172C319.453 253.766 326.016 257.203 333.672 260.484C341.484 263.766 350.234 266.969 359.922 270.094C378.047 275.875 394.141 282.359 408.203 289.547C422.422 296.578 434.375 304.625 444.062 313.688C453.906 322.594 461.328 332.75 466.328 344.156C471.484 355.562 474.062 368.453 474.062 382.828C474.062 398.141 471.094 411.734 465.156 423.609C459.219 435.484 450.703 445.562 439.609 453.844C428.516 461.969 415.234 468.141 399.766 472.359C384.297 476.578 367.031 478.688 347.969 478.688C330.469 478.688 313.203 476.5 296.172 472.125C279.297 467.594 263.984 460.719 250.234 451.5C236.484 442.125 225.469 430.172 217.188 415.641C209.062 400.953 205 383.531 205 363.375H287.5C287.5 373.375 288.828 381.812 291.484 388.688C294.141 395.562 298.047 401.109 303.203 405.328C308.359 409.391 314.688 412.359 322.188 414.234C329.688 415.953 338.281 416.812 347.969 416.812C358.438 416.812 366.875 415.328 373.281 412.359C379.688 409.234 384.375 405.172 387.344 400.172C390.312 395.016 391.797 389.391 391.797 383.297Z" fill="black"/>
</svg>
